<svg width="262" height="69" viewBox="0 0 262 69" fill="none" xmlns="http://www.w3.org/2000/svg">
<path d="M127.351 24.3023C128.413 25.4865 129.812 26.0793 131.55 26.0793C133.29 26.0793 134.695 25.4865 135.767 24.3023C136.837 23.1168 137.372 21.6168 137.372 19.8011C137.372 17.9854 136.837 16.4842 135.767 15.3C134.695 14.1157 133.29 13.5217 131.55 13.5217C129.812 13.5217 128.413 14.1157 127.351 15.3C126.29 16.4842 125.76 17.9854 125.76 19.8011C125.76 21.6168 126.29 23.1168 127.351 24.3023ZM131.55 29.6907C128.665 29.6907 126.282 28.7597 124.398 26.8966C122.515 25.0335 121.574 22.6675 121.574 19.8011C121.574 16.9347 122.515 14.5687 124.398 12.7056C126.282 10.8425 128.665 9.91032 131.55 9.91032C134.457 9.91032 136.852 10.8375 138.734 12.6906C140.616 14.545 141.558 16.9147 141.558 19.8011C141.558 22.6875 140.616 25.056 138.734 26.9104C136.852 28.7647 134.457 29.6907 131.55 29.6907Z" fill="#D8A64B"/>
<path d="M163.552 29.3477H159.625L150.507 16.8775V29.3477H146.437V10.2262H150.622L159.48 22.2384V10.2262H163.552V29.3477Z" fill="#D8A64B"/>
<path d="M182.871 29.3477H169.339V10.2262H182.871V13.8101H173.41V17.8521H182.671V21.4348H173.41V25.7637H182.871V29.3477Z" fill="#D8A64B"/>
<path d="M131.008 63.7499H126.907V48.2124H121.316V44.6284H136.57V48.2124H131.008V63.7499Z" fill="#D8A64B"/>
<path d="M154.719 63.7501H141.188V44.6286H154.719V48.2126H145.258V52.2545H154.519V55.8372H145.258V60.1662H154.719V63.7501Z" fill="#D8A64B"/>
<path d="M172.065 63.7499H159.91V44.6284H163.98V60.1659H172.065V63.7499Z" fill="#D8A64B"/>
<path d="M190.441 63.7501H176.909V44.6286H190.441V48.2126H180.98V52.2545H190.241V55.8372H180.98V60.1662H190.441V63.7501Z" fill="#D8A64B"/>
<path d="M204.891 64.0938C201.986 64.0938 199.562 63.1728 197.624 61.3272C195.684 59.484 194.714 57.108 194.714 54.2029C194.714 51.2991 195.684 48.9244 197.624 47.0787C199.562 45.2356 201.986 44.3121 204.891 44.3121C208.465 44.3121 211.131 45.8708 212.89 48.9868L209.392 50.7051C208.972 49.904 208.355 49.2401 207.543 48.7135C206.73 48.1881 205.847 47.9248 204.891 47.9248C203.151 47.9248 201.719 48.5188 200.591 49.703C199.462 50.8873 198.898 52.3873 198.898 54.2029C198.898 56.0186 199.462 57.5186 200.591 58.7053C201.719 59.8896 203.151 60.4811 204.891 60.4811C205.847 60.4811 206.73 60.2228 207.543 59.7074C208.355 59.192 208.972 58.5232 209.392 57.7008L212.89 59.3917C211.073 62.5276 208.408 64.0938 204.891 64.0938Z" fill="#D8A64B"/>
<path d="M222.194 58.7047C223.256 59.889 224.655 60.4817 226.393 60.4817C228.133 60.4817 229.538 59.889 230.609 58.7047C231.68 57.5192 232.214 56.0193 232.214 54.2036C232.214 52.3879 231.68 50.8867 230.609 49.7024C229.538 48.5182 228.133 47.9242 226.393 47.9242C224.655 47.9242 223.256 48.5182 222.194 49.7024C221.133 50.8867 220.603 52.3879 220.603 54.2036C220.603 56.0193 221.133 57.5192 222.194 58.7047ZM226.393 64.0931C223.508 64.0931 221.124 63.1622 219.241 61.2991C217.358 59.436 216.417 57.07 216.417 54.2036C216.417 51.3372 217.358 48.9712 219.241 47.1081C221.124 45.245 223.508 44.3128 226.393 44.3128C229.298 44.3128 231.693 45.24 233.575 47.0931C235.458 48.9475 236.401 51.3172 236.401 54.2036C236.401 57.09 235.458 59.4585 233.575 61.3128C231.693 63.1672 229.298 64.0931 226.393 64.0931Z" fill="#D8A64B"/>
<path d="M262.001 63.7499H257.901V50.3612L252.511 63.7499H250.734L245.343 50.3612V63.7499H241.273V44.6284H246.978L251.623 56.1814L256.266 44.6284H262.001V63.7499Z" fill="#D8A64B"/>
<path d="M48.349 23.0955C69.8564 18.2175 93.4641 13.6926 100.562 24.1075C99.2284 21.1113 98.3349 17.747 97.9979 16.5029C96.1859 9.8204 72.8103 10.3433 45.7869 17.6709C18.7648 24.9985 -0.843162 37.9329 0.0279155 41.4969C0.416032 42.2893 1.60908 45.0372 1.8125 46.8816C0.334914 38.1563 22.8893 28.8695 48.349 23.0955Z" fill="#1C2A4A"/>
<path d="M22.1786 37.2665C19.7475 37.1442 17.3415 36.9396 14.9541 36.6738C15.0714 39.7299 15.5993 42.6936 16.4841 45.5026C16.6813 45.5139 16.8772 45.5288 17.0744 45.5376C40.7557 46.7293 63.1404 40.7744 82.1419 29.5708C81.8598 27.9248 81.4505 26.32 80.9376 24.7626C63.3663 33.7125 43.2866 38.3272 22.1786 37.2665" fill="url(#paint0_linear)"/>
<path d="M27.3871 49.7695C25.0509 49.7695 22.7322 49.6972 20.4297 49.5599C22.3129 52.9554 24.7664 55.9903 27.6554 58.5422V58.541C48.1257 57.0236 67.1234 50.22 83.2983 39.5019C83.5641 38.103 83.7513 36.6791 83.8386 35.2253C67.1085 44.4897 47.8661 49.7695 27.3871 49.7695Z" fill="url(#paint1_linear)"/>
<path d="M32.4208 63.038C32.291 63.038 32.1649 63.0342 32.0352 63.033C36.9197 66.2738 42.689 68.2829 48.9051 68.6123C57.7544 66.4584 66.2069 63.2938 74.1376 59.2519C75.9909 57.4761 77.6419 55.4945 79.0546 53.3393C64.7717 59.5738 49.0024 63.038 32.4208 63.038Z" fill="url(#paint2_linear)"/>
<path d="M43.5996 68.4199C44.1924 68.5285 44.7927 68.6258 45.3992 68.7057C54.407 69.8937 63.0479 67.4129 69.838 62.4326C61.4467 65.405 52.6548 67.4378 43.5996 68.4199Z" fill="url(#paint3_linear)"/>
<path d="M20.4297 62.3541C21.7825 63.5059 23.2126 64.5679 24.7152 65.525C24.8612 65.5225 25.0072 65.525 25.1545 65.5225C44.0611 65.1719 61.9694 60.8891 78.1255 53.4791C80.7711 49.275 82.6306 44.533 83.4954 39.4578C65.2727 52.0278 43.7491 60.1903 20.4297 62.3541Z" fill="url(#paint4_linear)"/>
<path d="M16.7231 33.537C16.7206 33.6818 16.7119 33.8253 16.7119 33.97C16.7119 34.9921 16.7581 36.0041 16.8479 37.0012C19.244 37.1497 21.6588 37.2333 24.0936 37.2333C45.2253 37.2333 65.0455 31.6178 82.1438 21.7993C80.9333 18.6621 79.2772 15.7483 77.2418 13.1414C59.8827 25.095 39.1328 32.4763 16.7231 33.537Z" fill="url(#paint5_linear)"/>
<path d="M18.4168 19.1809C17.1813 19.0823 15.9558 18.9587 14.7316 18.8252C13.0755 22.494 12.006 26.5035 11.6641 30.7463C11.6765 30.5928 11.699 30.4406 11.7115 30.2871C35.5463 31.077 58.1656 25.0273 77.5789 13.8424C77.7125 14.0445 77.7362 14.0682 77.5814 13.8361C76.8127 12.6694 75.9728 11.5513 75.0755 10.4831C57.6814 17.5611 38.4129 20.7919 18.4168 19.1809" fill="url(#paint6_linear)"/>
<path d="M19.4358 20.5468C19.1775 21.1532 18.9304 21.7659 18.707 22.3899C19.8639 22.4236 21.0232 22.446 22.1888 22.446C41.0593 22.446 58.8827 17.9624 74.6582 10.0108C72.2259 7.5487 69.4142 5.46348 66.3255 3.83498C52.3883 12.5365 36.4867 18.3842 19.4358 20.5468Z" fill="url(#paint7_linear)"/>
<path d="M25.0781 11.6565C38.9068 11.0014 52.104 7.94026 64.2629 2.88255C60.0909 1.03691 55.481 -8.47692e-05 50.6239 -8.47692e-05C40.4218 -8.47692e-05 31.283 4.51854 25.0781 11.6565Z" fill="url(#paint8_linear)"/>
<path d="M21.7568 7.87433C18.9851 10.0332 16.5391 12.6238 14.5361 15.5738C31.6869 16.7281 48.4158 14.0452 63.7645 8.1863C63.1617 7.70087 62.5352 7.24039 61.8975 6.79489C48.9924 9.42171 35.4545 9.88843 21.7568 7.87433Z" fill="url(#paint9_linear)"/>
<path d="M100.563 24.107C99.6319 20.8712 98.5599 17.8301 97.8074 15.9882C99.396 20.3484 74.3432 35.9071 52.3504 41.8695C28.5455 48.3249 3.5588 49.4131 0.0283203 41.4964C0.392725 42.8616 1.11654 44.7285 1.68311 46.5354C3.75348 53.143 26.7784 54.1713 54.0838 47.978C81.388 41.7847 101.64 27.2704 100.563 24.107Z" fill="#235489"/>
<defs>
<linearGradient id="paint0_linear" x1="82.1989" y1="30.4911" x2="15.0812" y2="42.8958" gradientUnits="userSpaceOnUse">
<stop stop-color="#E8BF6B"/>
<stop offset="0.005618" stop-color="#E8BF6B"/>
<stop offset="0.0320158" stop-color="#E8BF6B"/>
<stop offset="0.185393" stop-color="#DFB66C"/>
<stop offset="0.595506" stop-color="#BC7C19"/>
<stop offset="0.603529" stop-color="#BC7C19"/>
<stop offset="0.870786" stop-color="#E9BB71"/>
<stop offset="1" stop-color="#EEDEC0"/>
</linearGradient>
<linearGradient id="paint1_linear" x1="20.43" y1="46.884" x2="83.8388" y2="46.884" gradientUnits="userSpaceOnUse">
<stop stop-color="#E8BF6B"/>
<stop offset="0.005618" stop-color="#E8BF6B"/>
<stop offset="0.0320158" stop-color="#E8BF6B"/>
<stop offset="0.185393" stop-color="#DFB66C"/>
<stop offset="0.595506" stop-color="#BC7C19"/>
<stop offset="0.603529" stop-color="#BC7C19"/>
<stop offset="0.870786" stop-color="#E9BB71"/>
<stop offset="1" stop-color="#EEDEC0"/>
</linearGradient>
<linearGradient id="paint2_linear" x1="35.8681" y1="68.3024" x2="88.386" y2="47.2347" gradientUnits="userSpaceOnUse">
<stop stop-color="#E8BF6B"/>
<stop offset="0.005618" stop-color="#E8BF6B"/>
<stop offset="0.0320158" stop-color="#E8BF6B"/>
<stop offset="0.185393" stop-color="#DFB66C"/>
<stop offset="0.595506" stop-color="#BC7C19"/>
<stop offset="0.603529" stop-color="#BC7C19"/>
<stop offset="0.870786" stop-color="#E9BB71"/>
<stop offset="1" stop-color="#EEDEC0"/>
</linearGradient>
<linearGradient id="paint3_linear" x1="84.3058" y1="60.7517" x2="13.1162" y2="76.365" gradientUnits="userSpaceOnUse">
<stop stop-color="#E8BF6B"/>
<stop offset="0.005618" stop-color="#E8BF6B"/>
<stop offset="0.0320158" stop-color="#E8BF6B"/>
<stop offset="0.185393" stop-color="#DFB66C"/>
<stop offset="0.595506" stop-color="#BC7C19"/>
<stop offset="0.603529" stop-color="#BC7C19"/>
<stop offset="0.870786" stop-color="#E9BB71"/>
<stop offset="1" stop-color="#EEDEC0"/>
</linearGradient>
<linearGradient id="paint4_linear" x1="85.7252" y1="41.5804" x2="23.1238" y2="69.6478" gradientUnits="userSpaceOnUse">
<stop stop-color="#E8BF6B"/>
<stop offset="0.005618" stop-color="#E8BF6B"/>
<stop offset="0.0320158" stop-color="#E8BF6B"/>
<stop offset="0.185393" stop-color="#DFB66C"/>
<stop offset="0.595506" stop-color="#BC7C19"/>
<stop offset="0.603529" stop-color="#BC7C19"/>
<stop offset="0.870786" stop-color="#E9BB71"/>
<stop offset="1" stop-color="#EEDEC0"/>
</linearGradient>
<linearGradient id="paint5_linear" x1="20.085" y1="42.2471" x2="119.145" y2="-6.52122" gradientUnits="userSpaceOnUse">
<stop stop-color="#E8BF6B"/>
<stop offset="0.005618" stop-color="#E8BF6B"/>
<stop offset="0.0320158" stop-color="#E8BF6B"/>
<stop offset="0.185393" stop-color="#DFB66C"/>
<stop offset="0.595506" stop-color="#BC7C19"/>
<stop offset="0.603529" stop-color="#BC7C19"/>
<stop offset="0.870786" stop-color="#E9BB71"/>
<stop offset="1" stop-color="#EEDEC0"/>
</linearGradient>
<linearGradient id="paint6_linear" x1="8.04973" y1="28.1622" x2="79.2452" y2="10.8297" gradientUnits="userSpaceOnUse">
<stop stop-color="#E8BF6B"/>
<stop offset="0.005618" stop-color="#E8BF6B"/>
<stop offset="0.0320158" stop-color="#E8BF6B"/>
<stop offset="0.185393" stop-color="#DFB66C"/>
<stop offset="0.595506" stop-color="#BC7C19"/>
<stop offset="0.603529" stop-color="#BC7C19"/>
<stop offset="0.870786" stop-color="#E9BB71"/>
<stop offset="1" stop-color="#EEDEC0"/>
</linearGradient>
<linearGradient id="paint7_linear" x1="74.1077" y1="10.4415" x2="-10.5117" y2="18.9379" gradientUnits="userSpaceOnUse">
<stop stop-color="#E8BF6B"/>
<stop offset="0.005618" stop-color="#E8BF6B"/>
<stop offset="0.0320158" stop-color="#E8BF6B"/>
<stop offset="0.185393" stop-color="#DFB66C"/>
<stop offset="0.595506" stop-color="#BC7C19"/>
<stop offset="0.603529" stop-color="#BC7C19"/>
<stop offset="0.870786" stop-color="#E9BB71"/>
<stop offset="1" stop-color="#EEDEC0"/>
</linearGradient>
<linearGradient id="paint8_linear" x1="28.7615" y1="11.0991" x2="101.995" y2="-16.4288" gradientUnits="userSpaceOnUse">
<stop stop-color="#E8BF6B"/>
<stop offset="0.005618" stop-color="#E8BF6B"/>
<stop offset="0.0320158" stop-color="#E8BF6B"/>
<stop offset="0.185393" stop-color="#DFB66C"/>
<stop offset="0.595506" stop-color="#BC7C19"/>
<stop offset="0.603529" stop-color="#BC7C19"/>
<stop offset="0.870786" stop-color="#E9BB71"/>
<stop offset="1" stop-color="#EEDEC0"/>
</linearGradient>
<linearGradient id="paint9_linear" x1="14.5362" y1="11.316" x2="63.7641" y2="11.316" gradientUnits="userSpaceOnUse">
<stop stop-color="#E8BF6B"/>
<stop offset="0.005618" stop-color="#E8BF6B"/>
<stop offset="0.0320158" stop-color="#E8BF6B"/>
<stop offset="0.185393" stop-color="#DFB66C"/>
<stop offset="0.595506" stop-color="#BC7C19"/>
<stop offset="0.603529" stop-color="#BC7C19"/>
<stop offset="0.870786" stop-color="#E9BB71"/>
<stop offset="1" stop-color="#EEDEC0"/>
</linearGradient>
</defs>
</svg>
